<?xml version="1.0" standalone="no"?>
<!DOCTYPE svg PUBLIC "-//W3C//DTD SVG 20010904//EN"
 "http://www.w3.org/TR/2001/REC-SVG-20010904/DTD/svg10.dtd">
<svg version="1.0" xmlns="http://www.w3.org/2000/svg"
 width="820.000000pt" height="820.000000pt" viewBox="0 0 820.000000 820.000000"
 preserveAspectRatio="xMidYMid meet">

<g transform="translate(0.000000,820.000000) scale(0.100000,-0.100000)"
fill="#000000" stroke="none">
<path d="M6509 8186 c-51 -18 -83 -44 -163 -134 -311 -349 -509 -754 -637
-1302 -38 -162 -106 -561 -115 -670 -7 -95 -18 -115 -73 -130 -20 -6 -153 -24
-296 -40 -644 -73 -908 -122 -1243 -232 -733 -241 -1215 -724 -1461 -1463
-118 -356 -150 -540 -252 -1448 -7 -61 -17 -105 -28 -118 -20 -24 -52 -32
-278 -65 -695 -100 -1150 -253 -1546 -521 -276 -186 -417 -334 -417 -439 0
-41 45 -129 79 -154 87 -61 189 -46 290 45 54 48 65 54 83 44 11 -6 163 -151
337 -323 360 -355 498 -487 537 -512 l27 -18 39 44 c52 60 178 249 178 268 0
9 -163 180 -363 381 -199 201 -370 380 -380 398 l-17 31 42 25 c50 28 207 100
285 129 48 18 56 18 76 5 12 -8 130 -120 263 -249 132 -130 250 -240 262 -247
30 -16 43 8 87 159 37 130 52 221 41 263 -3 13 -40 62 -81 108 -41 45 -75 88
-75 95 0 7 18 18 41 24 49 13 265 45 372 55 l77 7 0 -46 c0 -133 -100 -644
-175 -890 -87 -286 -261 -608 -445 -821 -81 -94 -138 -180 -146 -221 -9 -50
20 -127 65 -167 68 -62 145 -71 230 -28 97 50 344 372 483 631 172 318 317
829 383 1348 14 107 30 203 35 213 15 27 63 37 312 64 723 81 1074 151 1401
279 769 300 1230 866 1432 1757 35 153 80 431 110 684 56 464 64 524 74 543
13 24 60 36 221 57 430 54 887 171 1185 301 271 119 610 344 756 502 79 84 97
157 60 238 -23 50 -53 81 -106 105 -86 40 -149 15 -303 -118 -210 -182 -535
-363 -802 -448 -231 -73 -790 -185 -925 -185 -53 0 -52 -10 -30 170 25 204 71
440 85 440 4 0 61 -50 126 -111 66 -61 133 -122 151 -136 l32 -25 83 22 c175
44 328 100 328 120 0 5 -104 117 -231 247 -255 262 -339 357 -339 386 0 43
115 290 150 322 16 15 21 15 47 1 31 -16 220 -193 513 -482 174 -171 245 -235
282 -255 16 -9 34 -4 85 21 78 39 213 163 213 197 0 34 -73 114 -460 508 -198
201 -362 376 -365 388 -4 14 5 47 24 87 35 74 38 118 12 175 -46 102 -144 146
-242 111z m-983 -2747 c-4 -45 -11 -90 -17 -100 -12 -23 -52 -34 -204 -54
-187 -25 -186 -24 -175 -45 5 -9 65 -75 132 -146 161 -169 198 -215 198 -247
0 -27 -25 -164 -62 -344 -13 -65 -25 -103 -33 -103 -7 0 -186 171 -398 381
l-386 380 -59 -11 c-73 -13 -238 -64 -309 -96 -49 -21 -53 -25 -43 -44 21 -38
242 -268 644 -670 252 -251 406 -412 406 -424 0 -21 -99 -213 -154 -301 l-37
-56 -42 33 c-23 18 -206 195 -407 393 -517 510 -738 724 -793 769 l-48 39 -53
-37 c-59 -41 -226 -201 -226 -217 0 -17 221 -248 745 -778 278 -282 505 -516
505 -521 0 -25 -299 -219 -344 -224 -8 0 -243 225 -523 501 -476 470 -616 603
-633 603 -17 0 -140 -321 -140 -364 0 -31 36 -71 410 -452 316 -322 427 -441
417 -450 -9 -9 -107 -33 -281 -69 l-170 -34 -30 23 c-17 13 -112 102 -212 198
-199 192 -241 227 -249 206 -2 -7 -16 -96 -30 -197 -33 -234 -43 -279 -64
-290 -24 -13 -177 -25 -184 -14 -5 8 15 290 28 388 126 981 268 1378 623 1747
231 239 445 373 772 481 237 79 506 133 950 191 239 31 250 32 379 34 l104 2
-7 -81z"/>
</g>
</svg>
