<?xml version="1.0" standalone="no"?>
<!DOCTYPE svg PUBLIC "-//W3C//DTD SVG 20010904//EN"
 "http://www.w3.org/TR/2001/REC-SVG-20010904/DTD/svg10.dtd">
<svg version="1.0" xmlns="http://www.w3.org/2000/svg"
 width="1200.000000pt" height="489.000000pt" viewBox="0 0 1200.000000 489.000000"
 preserveAspectRatio="xMidYMid meet">

<g transform="translate(0.000000,489.000000) scale(0.100000,-0.100000)"
fill="#000000" stroke="none">
<path d="M340 4697 l0 -53 106 -17 c113 -18 143 -31 171 -74 17 -25 18 -90 24
-913 6 -885 8 -939 44 -1110 64 -301 204 -507 418 -613 85 -42 217 -82 305
-92 l63 -7 -3 -697 c-3 -694 -3 -696 -25 -744 -18 -38 -31 -52 -66 -67 -34
-15 -200 -50 -239 -50 -5 0 -8 -27 -8 -61 l0 -60 708 4 c670 4 712 5 803 25
302 65 537 190 745 397 337 336 509 819 491 1375 -9 252 -43 446 -114 635
-126 339 -381 596 -710 715 l-63 23 0 415 c0 406 0 414 19 391 29 -39 205
-269 483 -636 236 -311 262 -343 288 -343 l29 0 3 548 c3 612 0 588 74 612 49
17 150 9 172 -14 16 -15 17 -60 20 -532 l3 -514 -25 -25 c-14 -14 -35 -25 -48
-25 -43 0 -68 -12 -68 -31 0 -18 11 -19 215 -19 204 0 215 1 215 19 0 19 -25
31 -68 31 -13 0 -34 11 -47 25 l-25 24 0 509 c0 570 -3 547 71 558 29 5 41 1
68 -21 58 -49 56 -44 314 -857 l91 -288 41 0 41 0 205 552 c229 620 232 626
310 615 78 -10 74 23 77 -541 2 -320 -1 -513 -8 -530 -10 -28 -34 -41 -92 -51
-29 -4 -38 -11 -38 -25 0 -20 11 -20 600 -20 586 0 600 0 600 19 0 20 -9 25
-72 36 -22 3 -42 14 -48 25 -6 11 -10 110 -10 239 l0 221 74 0 74 0 119 -237
c65 -130 132 -252 149 -270 31 -33 32 -33 128 -33 53 0 96 3 96 6 0 3 -21 29
-46 58 -56 61 -153 205 -254 375 -67 114 -72 126 -55 135 131 77 199 198 198
351 0 123 -59 217 -168 267 -48 22 -63 23 -328 26 l-279 3 4 -23 c2 -19 11
-24 52 -30 87 -12 81 28 81 -557 0 -414 -3 -521 -13 -534 -13 -15 -100 -40
-113 -32 -3 3 2 57 12 122 23 146 23 143 -1 143 -14 0 -24 -13 -37 -52 -28
-81 -66 -150 -93 -170 -57 -41 -270 -50 -326 -13 -48 31 -54 65 -54 310 l0
225 86 0 c123 0 166 -27 184 -117 9 -42 15 -53 28 -51 15 3 17 24 17 188 0
167 -2 185 -17 188 -14 3 -19 -6 -24 -39 -14 -85 -71 -118 -206 -119 l-68 0 0
256 0 256 129 -3 c112 -4 133 -7 158 -25 36 -26 71 -95 79 -156 5 -38 10 -48
25 -48 18 0 19 10 19 140 l0 140 -485 0 c-468 0 -485 -1 -485 -19 0 -14 12
-22 44 -30 49 -12 86 -50 86 -88 0 -13 -54 -173 -121 -356 -66 -183 -135 -371
-152 -419 -17 -49 -34 -88 -38 -88 -3 0 -13 24 -21 53 -9 28 -39 129 -68 222
-135 441 -160 532 -160 578 0 66 13 85 65 98 33 8 45 16 45 30 0 18 -19 19
-575 19 -571 0 -575 0 -575 -20 0 -22 5 -25 63 -35 21 -3 52 -19 70 -35 l32
-28 3 -419 c2 -239 -1 -414 -6 -408 -5 6 -165 220 -357 478 l-349 467 -143 0
c-135 0 -143 -1 -143 -20 0 -14 10 -22 38 -30 46 -12 82 -36 116 -76 l26 -32
0 -435 0 -435 -52 13 c-52 13 -143 27 -261 40 l-59 7 5 461 c4 479 12 578 48
648 32 63 96 104 204 129 l70 17 3 51 3 52 -415 0 -416 0 0 -54 0 -53 43 -7
c74 -12 133 -36 176 -72 92 -79 101 -140 101 -726 l0 -448 -620 0 -620 0 0
-60 c0 -33 3 -60 8 -60 39 0 205 -35 239 -50 35 -15 48 -29 66 -67 21 -47 22
-57 25 -585 l4 -538 -25 0 c-13 0 -58 17 -98 37 -192 95 -308 308 -351 644
-10 79 -13 306 -13 949 0 768 2 848 17 882 23 52 81 77 221 93 l57 7 0 54 0
54 -470 0 -470 0 0 -53z m6210 -398 c125 -29 184 -165 151 -354 -28 -161 -94
-215 -261 -215 l-60 0 0 290 0 290 63 0 c34 0 82 -5 107 -11z m-4183 -1292
c-6 -249 -20 -349 -71 -500 -78 -231 -209 -384 -393 -456 l-53 -21 0 608 0
607 261 -3 262 -3 -6 -232z m305 177 c163 -52 297 -134 409 -251 238 -250 349
-602 349 -1102 0 -451 -79 -815 -233 -1077 -70 -119 -212 -264 -321 -327 -183
-106 -346 -141 -633 -135 -178 3 -191 5 -245 30 -66 31 -98 73 -125 163 -15
54 -17 127 -21 706 l-3 646 63 22 c240 86 423 267 528 522 76 183 110 385 110
648 0 211 -11 197 122 155z"/>
<path d="M7293 4366 c-141 -46 -222 -145 -223 -272 0 -133 41 -204 183 -312
136 -102 228 -191 261 -252 55 -101 42 -221 -32 -293 -46 -44 -78 -57 -145
-57 -119 1 -209 83 -238 220 -8 39 -15 50 -30 50 -19 0 -19 -7 -17 -137 l3
-138 65 -24 c57 -22 82 -25 195 -25 164 -1 221 18 306 103 65 65 89 124 89
216 0 146 -54 229 -265 406 -152 127 -196 177 -214 246 -13 47 -1 118 26 159
36 56 143 81 216 50 46 -19 91 -75 106 -132 7 -27 15 -55 17 -61 2 -7 13 -13
24 -13 20 0 21 5 18 122 l-3 123 -40 13 c-59 20 -250 25 -302 8z"/>
<path d="M7742 4338 c2 -19 11 -24 53 -30 90 -13 85 22 85 -560 l0 -509 -25
-24 c-13 -14 -34 -25 -47 -25 -43 0 -68 -12 -68 -31 0 -18 11 -19 215 -19 204
0 215 1 215 19 0 19 -25 31 -68 31 -13 0 -34 11 -47 25 l-25 24 0 509 c0 582
-5 547 85 560 42 6 51 11 53 30 l3 22 -216 0 -216 0 3 -22z"/>
<path d="M8180 4353 c0 -5 -9 -62 -20 -128 -24 -146 -24 -135 -2 -135 12 0 27
19 45 60 57 124 99 151 240 158 l97 5 0 -529 c0 -291 -3 -539 -6 -551 -6 -23
-36 -38 -96 -48 -29 -4 -38 -11 -38 -25 0 -19 8 -20 215 -20 207 0 215 1 215
20 0 14 -9 21 -37 25 -59 10 -83 23 -93 51 -6 15 -10 231 -10 550 l0 524 70 0
c153 0 204 -29 266 -152 32 -64 64 -89 64 -50 0 9 -9 69 -20 132 -11 63 -20
116 -20 118 0 6 -870 1 -870 -5z"/>
<path d="M9092 4338 c2 -15 13 -24 35 -30 58 -15 95 -75 237 -388 l136 -299 0
-191 c0 -189 0 -191 -25 -215 -13 -14 -34 -25 -47 -25 -43 0 -68 -12 -68 -31
0 -18 11 -19 215 -19 207 0 215 1 215 20 0 14 -9 21 -37 25 -71 12 -92 25 -99
59 -3 18 -4 118 -2 222 l3 189 152 300 c148 293 180 344 231 360 13 4 22 14
22 26 0 18 -9 19 -160 19 -152 0 -160 -1 -160 -20 0 -14 11 -22 40 -30 50 -14
75 -48 66 -93 -6 -34 -226 -487 -236 -487 -9 0 -209 470 -216 508 -8 41 13 67
62 76 25 5 34 12 34 26 0 19 -8 20 -201 20 l-200 0 3 -22z"/>
<path d="M10389 3926 c-102 -42 -162 -99 -210 -199 -84 -178 -48 -393 86 -515
68 -63 134 -87 230 -85 156 2 286 99 347 258 33 87 33 255 0 337 -32 79 -111
164 -187 200 -79 37 -182 39 -266 4z m212 -42 c225 -123 201 -652 -32 -714
-124 -34 -241 53 -292 214 -18 57 -22 94 -22 191 0 110 3 125 29 181 47 104
114 153 210 154 45 0 70 -6 107 -26z"/>
<path d="M10880 3926 c0 -7 14 -16 32 -20 60 -12 58 2 58 -372 0 -250 -3 -345
-12 -350 -6 -4 -25 -10 -41 -13 -17 -4 -32 -12 -35 -19 -3 -9 31 -12 137 -12
119 0 141 2 141 15 0 10 -10 15 -29 15 -56 0 -61 15 -61 192 l0 161 72 -5 c62
-5 75 -9 95 -32 13 -15 23 -38 23 -52 0 -15 6 -24 15 -24 13 0 15 20 15 120 0
100 -2 120 -15 120 -9 0 -15 -9 -15 -24 0 -13 -9 -34 -19 -47 -16 -20 -30 -24
-95 -27 l-76 -4 0 176 0 176 90 0 c85 0 93 -2 115 -26 13 -14 27 -40 30 -57
20 -101 35 -89 35 28 l0 95 -230 0 c-188 0 -230 -2 -230 -14z"/>
<path d="M5951 2568 c-155 -469 -339 -1002 -376 -1091 -21 -50 -49 -97 -69
-116 -32 -31 -35 -32 -73 -22 -56 15 -91 45 -103 89 -8 25 -10 236 -8 660 l3
624 23 18 c13 11 48 22 83 26 57 6 59 8 59 35 l0 29 -271 0 -270 0 3 -27 c2
-23 9 -29 33 -31 52 -5 103 -22 120 -38 13 -14 15 -94 15 -684 l0 -669 -26
-20 c-16 -12 -49 -23 -85 -27 -57 -6 -59 -8 -59 -35 l0 -29 495 0 c272 0 495
2 495 4 0 6 49 325 55 364 6 32 5 33 -21 30 -24 -3 -30 -14 -67 -112 -46 -125
-88 -176 -158 -197 -39 -12 -43 -12 -60 10 -29 36 -23 91 30 261 l48 155 258
0 257 0 49 -160 c27 -88 49 -179 49 -203 0 -56 -33 -92 -85 -92 -32 0 -35 -2
-35 -30 l0 -30 235 0 235 0 0 30 c0 25 -4 30 -24 30 -31 0 -69 37 -99 96 -37
73 -80 210 -399 1267 l-51 167 -56 0 -56 0 -94 -282z m197 -340 c57 -194 103
-356 102 -360 0 -5 -102 -8 -226 -8 -177 0 -225 3 -221 13 2 6 55 168 118 360
62 191 115 347 119 347 3 0 51 -159 108 -352z"/>
<path d="M8695 2838 c-3 -7 -94 -281 -204 -608 -202 -604 -265 -779 -301 -838
-21 -35 -74 -72 -102 -72 -13 0 -18 -8 -18 -30 l0 -30 180 0 180 0 0 30 c0 24
-4 30 -20 30 -34 0 -69 30 -81 70 -11 35 -7 53 36 197 26 87 52 166 57 176 8
15 31 17 258 17 227 0 250 -2 258 -17 16 -30 102 -327 102 -350 0 -54 -40 -93
-95 -93 -21 0 -25 -5 -25 -30 l0 -30 415 0 415 0 0 29 c0 27 -2 29 -59 35 -35
4 -70 15 -83 26 -23 18 -23 19 -26 309 l-3 292 98 -3 98 -3 102 -205 c158
-316 205 -401 244 -442 l36 -38 556 0 556 0 6 33 c3 17 14 93 25 167 11 74 22
150 26 168 5 32 4 33 -22 30 -24 -3 -31 -12 -59 -88 -46 -124 -71 -167 -113
-195 -54 -36 -129 -48 -261 -43 -139 5 -173 19 -202 81 -17 38 -19 69 -19 335
l0 294 124 -4 c108 -3 128 -6 153 -24 40 -30 63 -74 70 -133 5 -45 8 -51 29
-51 l24 0 0 240 0 240 -24 0 c-21 0 -24 -6 -29 -52 -7 -56 -26 -89 -70 -122
-23 -17 -47 -21 -152 -24 l-125 -4 0 321 0 321 160 0 c171 0 193 -5 237 -52
28 -30 60 -101 68 -153 13 -82 14 -85 40 -85 l25 0 0 180 0 180 -450 0 -450 0
0 -25 c0 -28 4 -31 74 -40 31 -4 57 -15 72 -30 l24 -24 0 -661 0 -661 -25 -24
c-41 -42 -67 -33 -128 43 -30 37 -81 108 -114 157 -61 92 -237 389 -248 417
-4 11 7 23 37 41 54 32 131 109 162 162 62 105 84 280 51 392 -33 112 -120
195 -242 233 -60 18 -93 20 -400 20 l-334 0 3 -27 c3 -25 8 -29 52 -35 72 -10
105 -27 114 -57 4 -14 7 -318 7 -674 l0 -649 -29 -24 c-27 -24 -29 -24 -48 -7
-52 46 -85 143 -328 948 -62 204 -124 411 -139 460 l-28 90 -57 3 c-39 2 -58
-1 -61 -10z m1162 -112 c62 -29 107 -86 130 -165 12 -43 14 -83 10 -180 -7
-183 -46 -276 -136 -329 -40 -23 -57 -26 -163 -30 l-118 -4 0 366 0 366 113 0
c97 0 119 -3 164 -24z m-1057 -487 c55 -189 103 -352 106 -361 5 -17 -10 -18
-220 -18 -169 0 -226 3 -226 12 0 15 233 718 237 714 1 -1 48 -157 103 -347z"/>
<path d="M3920 2790 c0 -28 3 -30 38 -31 55 0 105 -21 119 -49 10 -19 13 -170
13 -663 0 -734 4 -698 -80 -716 -28 -6 -60 -11 -70 -11 -16 0 -20 -7 -20 -30
l0 -30 493 0 493 0 27 183 c33 223 33 217 4 217 -21 0 -28 -13 -62 -106 -70
-190 -115 -219 -340 -219 -162 0 -195 12 -230 80 -18 37 -20 64 -23 333 l-4
292 113 0 c92 0 120 -4 154 -20 49 -23 80 -73 90 -142 6 -42 10 -48 31 -48
l24 0 0 240 0 240 -23 0 c-20 0 -25 -8 -36 -61 -22 -111 -73 -139 -248 -139
l-103 0 0 320 0 320 165 0 c184 0 206 -6 248 -62 30 -42 44 -77 60 -158 12
-59 15 -65 37 -65 l25 0 3 178 2 177 -450 0 -450 0 0 -30z"/>
<path d="M6380 2795 c0 -20 7 -26 39 -35 51 -13 83 -40 116 -95 42 -72 57
-125 205 -710 77 -302 148 -581 158 -620 l18 -70 44 -3 45 -3 198 602 c109
330 201 598 205 594 4 -3 95 -273 203 -598 l197 -592 48 0 48 0 73 260 c41
143 126 447 190 675 64 228 124 431 134 451 24 48 77 98 114 107 23 6 31 15
33 35 l3 27 -220 0 -221 0 0 -25 c0 -26 3 -27 82 -40 53 -8 88 -53 88 -111 0
-26 -52 -233 -126 -502 -70 -251 -131 -474 -137 -495 -5 -21 -12 -36 -14 -33
-2 2 -93 269 -201 593 l-197 588 -40 3 -40 3 -200 -601 c-110 -330 -202 -600
-205 -600 -12 0 -254 1007 -254 1054 0 42 5 53 31 76 17 15 48 30 71 34 36 5
42 10 42 31 l0 25 -265 0 -265 0 0 -25z"/>
<path d="M11494 1426 c-52 -23 -77 -63 -71 -119 5 -56 34 -92 87 -108 70 -21
150 41 150 116 0 43 -35 94 -75 111 -42 17 -51 17 -91 0z m112 -40 c39 -39 45
-85 17 -126 -27 -39 -45 -49 -86 -50 -89 0 -131 111 -68 179 41 44 91 43 137
-3z"/>
<path d="M11499 1324 c2 -40 -1 -59 -10 -65 -9 -6 -2 -8 21 -8 19 0 29 3 23 6
-15 5 -18 53 -4 53 6 0 18 -13 28 -30 9 -16 23 -30 31 -30 9 0 7 9 -9 31 -16
23 -19 33 -10 39 7 4 11 18 9 31 -2 20 -9 24 -43 27 l-40 3 4 -57z m61 21 c0
-18 -5 -25 -20 -25 -15 0 -20 7 -20 25 0 18 5 25 20 25 15 0 20 -7 20 -25z"/>
</g>
</svg>
